<?xml version="1.0" encoding="UTF-8" standalone="no"?>
<svg
   xmlns:dc="http://purl.org/dc/elements/1.1/"
   xmlns:cc="http://creativecommons.org/ns#"
   xmlns:rdf="http://www.w3.org/1999/02/22-rdf-syntax-ns#"
   xmlns:svg="http://www.w3.org/2000/svg"
   xmlns="http://www.w3.org/2000/svg"
   xmlns:sodipodi="http://sodipodi.sourceforge.net/DTD/sodipodi-0.dtd"
   xmlns:inkscape="http://www.inkscape.org/namespaces/inkscape"
   enable-background="new 0 0 38.1 38.1"
   version="1.1"
   viewBox="0 0 38.1 38.1"
   id="svg16"
   sodipodi:docname="edit-icon-2375785.svg"
   inkscape:version="0.92.2 (5c3e80d, 2017-08-06)">
  <metadata
     id="metadata22">
    <rdf:RDF>
      <cc:Work
         rdf:about="">
        <dc:format>image/svg+xml</dc:format>
        <dc:type
           rdf:resource="http://purl.org/dc/dcmitype/StillImage" />
      </cc:Work>
    </rdf:RDF>
  </metadata>
  <defs
     id="defs20" />
  <sodipodi:namedview
     pagecolor="#ffffff"
     bordercolor="#666666"
     borderopacity="1"
     objecttolerance="10"
     gridtolerance="10"
     guidetolerance="10"
     inkscape:pageopacity="0"
     inkscape:pageshadow="2"
     inkscape:window-width="1920"
     inkscape:window-height="1147"
     id="edit"
     showgrid="false"
     inkscape:zoom="17.519917"
     inkscape:cx="17.870781"
     inkscape:cy="23.213972"
     inkscape:window-x="-8"
     inkscape:window-y="-8"
     inkscape:window-maximized="1"
     inkscape:current-layer="svg16" />
  <style
     type="text/css"
     id="style2">.st0{fill:#0190B0;} .st1{fill:#00A5CB;} .st2{clip-path:url(#SVGID_2_);} .st3{fill:#DCDBDB;} .st4{fill:#FFFFFF;} .st5{fill:#F2F2F2;} .st6{clip-path:url(#SVGID_4_);} .st7{fill:none;} .st8{fill:none;stroke:#FFFFFF;stroke-miterlimit:10;} .st9{clip-path:url(#SVGID_6_);} .st10{clip-path:url(#SVGID_8_);} .st11{clip-path:url(#SVGID_10_);}</style>
  <circle
     class="st0"
     cx="19.1"
     cy="19.1"
     r="18.8"
     id="circle4"
     style="fill:#ac006a;fill-opacity:0.89719623" />
  <path
     class="st1"
     d="M19.1,38C8.7,38,0.3,29.5,0.3,19.1S8.7,0.3,19.1,0.3"
     id="path6"
     style="fill:#cc00aa;fill-opacity:0.34579438;opacity:0.93620038" />
  <polygon
     class="st4"
     points="7.7 23.9 21.1 11.1 24.9 15 11.5 27.8"
     id="polygon8" />
  <path
     class="st4"
     d="m27.3 12.6c-0.1-0.1-3.8-3.9-3.8-3.9s2.7-2.6 2.9-2.8c0.5-0.4 1.2-0.3 1.7 0.1 0.2 0 1.9 1.8 2.1 2 0.5 0.5 0.4 1.4-0.1 1.9-0.4 0.4-2.5 2.4-2.8 2.7z"
     id="path10" />
  <path
     class="st4"
     d="m7.1 24.6s3.8 3.9 3.8 3.9c-0.6 0.1-5 1-5 1s1.2-4.9 1.2-4.9z"
     id="path12" />
  <rect
     class="st4"
     transform="matrix(-.7213 .6926 -.6926 -.7213 49.874 3.6121)"
     x="23.6"
     y="9.1"
     width="1.2"
     height="5.5"
     id="rect14" />
</svg>
